<?xml version="1.0" encoding="UTF-8"?>
<svg version="1.1" xmlns="http://www.w3.org/2000/svg" width="261" height="266">
<path d="M0 0 C1.04776611 0.00725098 2.09553223 0.01450195 3.17504883 0.02197266 C11.68954837 0.17379333 19.87763585 0.87587251 27.67578125 4.58984375 C30.08871587 5.61216054 30.08871587 5.61216054 32.40625 4.73046875 C33.1384375 4.34503906 33.870625 3.95960937 34.625 3.5625 C46.28975706 -2.45470743 64.50167645 -1.33214349 76.9375 1.9375 C94.31885656 8.02203853 108.09083146 20.37178033 116.09375 36.890625 C117.08897833 39.28822052 117.73458042 41.61388111 118.375 44.125 C119.84752903 48.88368138 122.55240598 50.33897718 126.71484375 52.7890625 C137.27361133 59.73697115 142.91955565 71.59027812 146.125 83.375 C147.92839095 92.47500567 147.60417494 100.90313899 145.3125 109.875 C143.48300837 118.0360502 145.73393229 123.00535438 149.125 130.375 C149.9375 134.0625 149.9375 134.0625 150.125 137.375 C150.17527344 138.07238281 150.22554687 138.76976562 150.27734375 139.48828125 C150.89876972 154.67593189 146.12253544 169.84087838 136.125 181.375 C129.88423996 187.56230599 122.84262585 193.59307051 114.1875 195.6875 C111.9370473 196.25951009 111.9370473 196.25951009 110.125 197.375 C109.14759938 199.56382674 108.87183042 201.52463444 108.56640625 203.8984375 C107.41935263 210.33411889 103.16204766 216.36825754 98.125 220.375 C92.5721034 223.5191545 87.46120992 224.91418473 81.125 225.375 C81.31320313 225.91640625 81.50140625 226.4578125 81.6953125 227.015625 C82.81947089 233.18827653 79.92430568 240.52545151 76.8125 245.8125 C72.13009769 252.50362519 66.06526271 256.47797014 58.125 258.375 C54.36740807 258.44965414 50.81518705 258.0646995 47.125 257.375 C46.43921875 257.28476562 45.7534375 257.19453125 45.046875 257.1015625 C39.12947718 254.86449747 35.08435546 246.45935727 32.125 241.1875 C28.80967581 235.46676397 24.67265426 230.90609289 18.52734375 228.25390625 C13.94040691 227.06899145 9.40083853 226.69234158 4.6875 226.3125 C1.16541548 226.01258992 -2.35522213 225.70085277 -5.875 225.375 C-7.70611328 225.20677734 -7.70611328 225.20677734 -9.57421875 225.03515625 C-19.9478778 222.96042444 -30.64117165 215.80011346 -36.875 207.375 C-41.46896154 199.8246162 -44.87446812 192.23685375 -45.875 183.375 C-46.83921875 183.58253906 -47.8034375 183.79007813 -48.796875 184.00390625 C-53.52516823 184.67038175 -57.5789181 183.57891829 -62.125 182.3125 C-63.38461548 181.96578247 -63.38461548 181.96578247 -64.66967773 181.61206055 C-78.33341889 177.67290459 -88.45126697 170.54356391 -96.3125 158.5 C-102.17598256 147.81949211 -103.93757797 134.82866463 -101.04296875 122.96484375 C-99.75725989 119.07882482 -98.26728298 115.30699258 -96.6796875 111.53515625 C-95.67568374 107.59224827 -96.20974203 104.30774297 -96.875 100.375 C-98.99761108 85.39482668 -95.76756443 72.79900185 -87.375 60.375 C-86.99529053 59.81031006 -86.61558105 59.24562012 -86.22436523 58.66381836 C-84.10064003 55.65593376 -82.37723151 53.64853873 -78.875 52.375 C-78.875 51.715 -78.875 51.055 -78.875 50.375 C-74.22856634 46.45024646 -69.22643277 43.4489987 -63.625 41.125 C-58.42447255 38.65009891 -56.85396997 35.41148655 -54.4140625 30.34765625 C-47.46771582 16.93098157 -34.50781521 7.39821591 -20.39794922 2.51831055 C-13.50110914 0.506137 -7.1664225 -0.09808323 0 0 Z M42.125 22.375 C35.66905538 29.51884939 38.02082165 42.84994204 38.1328125 51.8828125 C38.15031883 54.44140235 38.16722805 56.99999635 38.18359375 59.55859375 C38.21457174 63.53901899 38.25022305 67.51923201 38.29638672 71.49951172 C38.33888439 75.37730509 38.36219922 79.2548492 38.3828125 83.1328125 C38.40143341 84.31223419 38.42005432 85.49165588 38.4392395 86.70681763 C38.48196877 100.58236983 34.42957562 109.17226219 24.9375 119.0625 C20.07167461 124.20608008 15.52716555 129.46811321 11.1015625 134.99609375 C8.85907074 137.69506111 6.43468145 140.09304736 3.9140625 142.52734375 C1.78888995 144.72211802 -0.09066133 147.05256242 -2 149.4375 C-6.1815868 154.64652135 -10.64684915 159.51999707 -15.27001953 164.34008789 C-21.81190287 170.93878686 -21.81190287 170.93878686 -25.46875 179.21875 C-25.16135112 187.928385 -23.19366804 194.05633196 -16.875 200.375 C-12.06496816 203.5546842 -7.62611585 204.78815144 -1.875 205.375 C-1.545 205.705 -1.215 206.035 -0.875 206.375 C1.625 206.54166667 1.625 206.54166667 4.125 206.375 C4.455 206.045 4.785 205.715 5.125 205.375 C5.125 205.705 5.125 206.035 5.125 206.375 C6.68347656 206.52195313 6.68347656 206.52195313 8.2734375 206.671875 C23.20230576 208.21352086 34.37525992 212.16355852 44.31640625 223.94140625 C47.95958221 228.84356311 51.03629208 234.1121626 54.125 239.375 C56.5678732 239.08048355 56.5678732 239.08048355 59.125 238.375 C63.33496092 232.13264415 62.86659198 224.64102359 62.125 217.375 C60.58953583 210.89615377 60.58953583 210.89615377 57.125 205.375 C57.125 203.04166667 57.125 200.70833333 57.125 198.375 C56.96773438 197.62863281 56.81046875 196.88226563 56.6484375 196.11328125 C54.31610038 183.91202514 55.91452216 173.14356311 62.8515625 162.80078125 C67.97764213 156.08203078 74.08192177 150.25548419 80.125 144.375 C82.80347855 141.76609232 85.0486945 139.48945825 87.125 136.375 C86.51717832 134.685984 85.84206828 133.02061092 85.125 131.375 C84.19416095 124.81993343 84.64696326 119.47973409 88.5546875 114.03125 C91.1110215 111.33501712 93.76977368 109.95765392 97.125 108.375 C97.785 108.045 98.445 107.715 99.125 107.375 C105.71506714 106.54098735 110.60104378 107.74246643 116.125 111.375 C120.3450404 114.70661084 121.6591984 118.13923155 122.41796875 123.41015625 C122.8412818 129.89714265 121.05570256 135.20117993 117.125 140.375 C113.11264713 143.73309233 109.27975 146.4595 103.9375 146.25 C101.16664277 146.08237673 101.16664277 146.08237673 99.69921875 147.60546875 C98.56901099 148.92077257 97.46797934 150.26135961 96.38671875 151.6171875 C93.40068446 155.25818959 90.17288386 158.64343896 86.9375 162.0625 C76.81197426 172.5593937 76.81197426 172.5593937 73.125 186.375 C73.72492998 192.64926774 74.39896061 198.14769231 78.125 203.375 C80.94098187 205.67760759 80.94098187 205.67760759 84.125 205.25 C87.6948678 204.20878856 88.25702248 203.5109064 90.125 200.375 C90.66293165 198.24772482 91.11539765 196.09776646 91.5 193.9375 C93.3821975 185.47234041 93.3821975 185.47234041 98.125 182.375 C101.13075063 181.01987928 104.16092788 179.77390559 107.23046875 178.5703125 C110.62020869 177.17050087 113.27578628 175.67019994 116.125 173.375 C116.125 172.715 116.125 172.055 116.125 171.375 C116.723125 171.11460937 117.32125 170.85421875 117.9375 170.5859375 C124.45799937 166.97637535 127.39434542 159.38540356 129.4296875 152.578125 C132.18965751 139.86365642 128.83852409 128.73785127 123.125 117.375 C122.43211308 113.71259771 123.4436793 111.72170758 125.125 108.5625 C128.48792831 101.39225643 128.41826883 92.13898008 126.359375 84.5546875 C125.42401755 82.36476331 124.37438754 80.39926902 123.125 78.375 C122.568125 77.323125 122.01125 76.27125 121.4375 75.1875 C117.53538191 70.44168071 113.22080552 66.98538434 107.09375 65.77734375 C104.42636171 65.53329147 101.80273914 65.38501024 99.125 65.375 C99.29 64.59125 99.455 63.8075 99.625 63 C101.02906548 52.82052525 99.83039661 46.17587775 94.125 37.375 C86.28386588 27.6139174 75.54797526 21.60091818 63.1796875 19.80078125 C56.09167375 19.09422687 48.39718813 18.38098595 42.125 22.375 Z M-33.875 35.375 C-33.875 35.705 -33.875 36.035 -33.875 36.375 C-32.90820312 36.51035156 -31.94140625 36.64570312 -30.9453125 36.78515625 C-22.91931989 38.11222632 -17.31485838 39.6224611 -10.828125 44.8515625 C-8.85107184 46.56860054 -8.85107184 46.56860054 -5.875 47.375 C-4.875 49.0859375 -4.875 49.0859375 -3.875 51.375 C-3.400625 52.25414062 -2.92625 53.13328125 -2.4375 54.0390625 C2.56897649 63.52633546 6.00703021 73.56367672 3.6953125 84.38671875 C2.46066537 88.02206864 1.11099642 89.38388688 -2.125 91.4375 C-6.71311988 92.58452997 -8.55234032 92.05113334 -12.875 90.375 C-13.94901912 86.82986372 -14.04434484 83.43931298 -14.1875 79.75 C-14.70888171 72.48088105 -15.32223282 65.56857197 -21 60.46484375 C-29.20795772 54.75437316 -37.11730878 54.68081555 -46.875 55.375 C-57.87862702 57.76412497 -66.33677514 64.36419771 -72.875 73.375 C-78.3979271 82.32883636 -78.67547046 91.68941722 -76.375 101.75 C-76.0759375 102.87148437 -75.776875 103.99296875 -75.46875 105.1484375 C-74.83021399 108.61837659 -74.99689399 110.97354539 -75.875 114.375 C-76.49375 115.261875 -77.1125 116.14875 -77.75 117.0625 C-81.70968646 123.23495243 -83.78958153 131.05834774 -82.875 138.375 C-80.68049018 147.03547625 -77.10398338 153.76626499 -69.65625 158.90625 C-60.91444524 163.78803707 -50.71091541 165.64009093 -40.94921875 163.125 C-32.23484177 159.97403883 -26.19131917 149.54213726 -20.875 142.375 C-21.3189209 141.93631592 -21.7628418 141.49763184 -22.22021484 141.0456543 C-24.23277029 139.05390386 -26.2414162 137.05825526 -28.25 135.0625 C-28.94867188 134.37220703 -29.64734375 133.68191406 -30.3671875 132.97070312 C-31.0375 132.30361328 -31.7078125 131.63652344 -32.3984375 130.94921875 C-33.01638184 130.33651123 -33.63432617 129.72380371 -34.27099609 129.0925293 C-35.875 127.375 -35.875 127.375 -37.875 124.375 C-38.80119141 124.53548828 -38.80119141 124.53548828 -39.74609375 124.69921875 C-46.05319365 125.59200458 -51.19361747 125.49639198 -56.875 122.375 C-60.76342591 118.9797403 -63.58670655 114.75174486 -64.2109375 109.60546875 C-64.29687453 102.9109743 -64.09869764 98.68169703 -59.875 93.375 C-55.84771568 89.37901582 -51.88037216 87.59495572 -46.21875 87.2265625 C-42.16116508 87.48354288 -38.61246408 88.85900051 -34.875 90.375 C-33.885 90.705 -32.895 91.035 -31.875 91.375 C-30.8125 93.125 -30.8125 93.125 -29.875 95.375 C-29.50375 96.07625 -29.1325 96.7775 -28.75 97.5 C-27.84614024 100.46982491 -27.9608797 102.19756331 -28.1875 105.25 C-28.26526818 108.32870504 -28.23876769 109.85202096 -26.46484375 112.40234375 C-24.66465459 114.1490241 -22.79308054 115.75999279 -20.875 117.375 C-19.53205519 119.03393182 -18.19755312 120.69976605 -16.875 122.375 C-14.07063993 125.38968708 -11.71742345 127.80956822 -7.875 129.375 C-7.875 128.715 -7.875 128.055 -7.875 127.375 C-7.215 127.375 -6.555 127.375 -5.875 127.375 C-4.54518907 125.88390766 -3.2880127 124.32793286 -2.0625 122.75 C2.28212261 117.30332678 6.90521707 112.20572632 11.69458008 107.14794922 C12.22591553 106.58479004 12.75725098 106.02163086 13.3046875 105.44140625 C13.77632324 104.94584229 14.24795898 104.45027832 14.73388672 103.93969727 C15.1929541 103.42334717 15.65202148 102.90699707 16.125 102.375 C16.64166733 101.8246257 17.15833466 101.2742514 17.69065857 100.7071991 C19.6492824 97.52253146 19.48568044 95.22110823 19.46557617 91.49511719 C19.46601425 90.81178314 19.46645233 90.1284491 19.46690369 89.42440796 C19.46481921 87.1732696 19.44150548 84.92288271 19.41796875 82.671875 C19.41237155 81.10817878 19.40810204 79.54447729 19.40510559 77.98077393 C19.39366648 73.87070114 19.36420756 69.7609478 19.33099365 65.65100098 C19.30027251 61.45487794 19.2865959 57.25870315 19.27148438 53.0625 C19.23933676 44.83318695 19.18815195 36.60413324 19.125 28.375 C18.135 28.375 17.145 28.375 16.125 28.375 C17.115 27.715 18.105 27.055 19.125 26.375 C15.1786351 21.39914861 9.89522056 19.83844904 3.7734375 19.0859375 C-10.99815226 18.5566623 -24.38964254 23.97372597 -33.875 35.375 Z M-48.875 101.375 C-50.08797649 103.6556707 -50.08797649 103.6556707 -50.875 106.375 C-50.10896041 108.6607711 -50.10896041 108.6607711 -48.875 110.375 C-46.45854218 110.54187448 -46.45854218 110.54187448 -43.875 110.375 C-41.6258092 108.54796773 -41.6258092 108.54796773 -41.625 105.875 C-41.6258092 103.20203227 -41.6258092 103.20203227 -43.875 101.375 C-46.45854218 101.20812552 -46.45854218 101.20812552 -48.875 101.375 Z M100.125 123.375 C99.8747843 126.45865871 99.8747843 126.45865871 100.125 129.375 C102.45354463 130.57338209 102.45354463 130.57338209 105.125 131.375 C108.14696448 129.71867958 108.14696448 129.71867958 109.0625 127.5 C109.36143206 125.16959757 109.36143206 125.16959757 107.3125 123.125 C104.0304931 120.49939448 103.66458491 121.01527673 100.125 123.375 Z " fill="#00305D" transform="translate(107.875,5.625)"/>
<path d="M0 0 C5.03656166 2.83495087 8.37542504 6.88995803 11.1875 11.875 C12.74721566 18.26983419 12.11428373 22.73648242 9.17578125 28.48046875 C7.8125 30.4375 7.8125 30.4375 5.26489258 32.54101562 C2.1323493 36.24081587 2.12947341 39.10807776 2.2109375 43.73828125 C2.19892807 44.93108955 2.19892807 44.93108955 2.18667603 46.147995 C2.1636644 48.6825185 2.17303468 51.21543449 2.1875 53.75 C2.19136492 56.27355399 2.18774598 58.79639436 2.16690063 61.31987 C2.15494478 62.8859186 2.15725758 64.45216797 2.17660522 66.0181427 C2.14492614 72.29230293 0.90410352 77.65961675 -2.91748047 82.73510742 C-3.54025879 83.33170166 -4.16303711 83.9282959 -4.8046875 84.54296875 C-5.83916016 85.55327148 -5.83916016 85.55327148 -6.89453125 86.58398438 C-7.60996094 87.25751953 -8.32539063 87.93105469 -9.0625 88.625 C-9.77019531 89.31013672 -10.47789062 89.99527344 -11.20703125 90.70117188 C-12.57719203 92.02668123 -13.95232228 93.34707818 -15.33300781 94.66162109 C-16.92559276 96.1866952 -18.48951206 97.73227782 -20.0390625 99.30078125 C-22.2949996 101.54441324 -24.70448794 103.45109035 -27.1875 105.4375 C-31.48551483 109.50930353 -35.32840008 113.95560586 -39.1875 118.4375 C-38.1975 118.9325 -38.1975 118.9325 -37.1875 119.4375 C-37.8475 119.4375 -38.5075 119.4375 -39.1875 119.4375 C-39.27 120.46875 -39.3525 121.5 -39.4375 122.5625 C-40.47120283 127.90329797 -42.64785914 130.97889287 -46.5625 134.6875 C-52.14585848 138.40973899 -57.62519178 139.15680866 -64.1875 138.4375 C-67.83097393 137.584242 -71.26104018 136.76101403 -73.5 133.5625 C-73.726875 132.86125 -73.95375 132.16 -74.1875 131.4375 C-74.703125 130.73625 -75.21875 130.035 -75.75 129.3125 C-78.29321865 124.2260627 -79.03383924 119.24506767 -77.375 113.7421875 C-74.70338476 107.85408812 -71.80404069 104.60318657 -66.1875 101.4375 C-63.66360873 100.52506219 -62.21176248 100.43396561 -59.52441406 100.82543945 C-53.97073145 101.57196388 -49.86330261 101.20321786 -45.24023438 97.97021484 C-40.83837011 94.49640692 -36.87062448 90.61334776 -32.9375 86.625 C-32.23727722 85.93353882 -31.53705444 85.24207764 -30.81561279 84.52966309 C-22.6889833 76.38161241 -16.56928329 69.59618455 -15.72753906 57.74731445 C-15.83230915 53.35750795 -16.14376348 49.09167323 -16.90087891 44.76464844 C-17.1875 42.4375 -17.1875 42.4375 -16.1875 39.4375 C-17.5075 39.1075 -18.8275 38.7775 -20.1875 38.4375 C-19.6925 37.4475 -19.6925 37.4475 -19.1875 36.4375 C-19.66960937 35.89222656 -20.15171875 35.34695312 -20.6484375 34.78515625 C-24.92117725 29.68402818 -28.14162273 25.27321287 -28.1875 18.4375 C-27.13425446 12.00099945 -24.92742125 5.15744272 -19.46875 1.1875 C-13.09975011 -2.45192851 -6.75108626 -2.97047796 0 0 Z M-10.1875 13.4375 C-12.52141203 16.21864056 -12.52141203 16.21864056 -11.8125 19.125 C-11.60625 19.888125 -11.4 20.65125 -11.1875 21.4375 C-8.17718256 22.37173645 -7.32099732 22.48199911 -4.1875 21.4375 C-3.25358997 19.62093185 -3.25358997 19.62093185 -3.1875 17.4375 C-4.04540183 15.21978936 -4.04540183 15.21978936 -5.1875 13.4375 C-7.60369823 13.18719023 -7.60369823 13.18719023 -10.1875 13.4375 Z M-61.1875 115.4375 C-61.8475 117.4175 -62.5075 119.3975 -63.1875 121.4375 C-61.95940909 123.08305699 -61.95940909 123.08305699 -60.1875 124.4375 C-58.06707244 124.5951585 -58.06707244 124.5951585 -56.1875 123.4375 C-54.89089566 120.94715614 -54.89089566 120.94715614 -54.1875 118.4375 C-55.4363427 116.8541747 -55.4363427 116.8541747 -57.1875 115.4375 C-58.5075 115.4375 -59.8275 115.4375 -61.1875 115.4375 Z " fill="#00315E" transform="translate(180.1875,58.5625)"/>
<path d="M0 0 C0.33 0 0.66 0 1 0 C1.07476562 0.65484375 1.14953125 1.3096875 1.2265625 1.984375 C2.72214476 12.36547542 6.92274686 22.95504154 15 30 C24.98475403 37.39014949 35.38505171 40.03387475 47.5625 41 C57.68382617 41.8129472 67.1226602 42.76562934 74.32421875 50.671875 C76.89807858 54.24768026 78.92147252 58.12526291 81.00927734 61.99633789 C84.29012602 67.90202531 87.54160579 70.84720193 94 73 C102.20118869 73.91124319 108.20383989 71.6562613 115 67 C121.44047372 60.22495622 122.21734007 50.89760763 123 42 C123.94875 41.7525 124.8975 41.505 125.875 41.25 C135.08544194 38.57298131 141.69552916 36.05389658 147.125 27.75 C149.3226696 23.70307184 150.68338369 19.39869542 152 15 C152.33 15 152.66 15 153 15 C152.59266161 23.55410626 150.08215169 29.14731038 144.75 35.8125 C138.75747501 40.57928124 132.55247305 42.45072923 125 43 C125.18820313 43.54140625 125.37640625 44.0828125 125.5703125 44.640625 C126.69447089 50.81327653 123.79930568 58.15045151 120.6875 63.4375 C116.00509769 70.12862519 109.94026271 74.10297014 102 76 C98.24240807 76.07465414 94.69018705 75.6896995 91 75 C90.31421875 74.90976562 89.6284375 74.81953125 88.921875 74.7265625 C83.00447718 72.48949747 78.95935546 64.08435727 76 58.8125 C72.68467581 53.09176397 68.54765426 48.53109289 62.40234375 45.87890625 C57.81540691 44.69399145 53.27583853 44.31734158 48.5625 43.9375 C45.04041548 43.63758992 41.51977787 43.32585277 38 43 C36.77925781 42.88785156 35.55851562 42.77570313 34.30078125 42.66015625 C23.90671257 40.58134251 13.2645812 33.42000048 7 25 C1.86877872 16.93528722 -1.25151623 9.73401509 0 0 Z " fill="#011830" transform="translate(64,188)"/>
<path d="M0 0 C0.99 0.33 1.98 0.66 3 1 C-1.14647339 5.2702203 -5.30922119 9.52363471 -9.48779297 13.76245117 C-10.90643289 15.2062098 -12.32054965 16.6544276 -13.72998047 18.10717773 C-15.75872112 20.19668052 -17.80327891 22.26951688 -19.8515625 24.33984375 C-20.47680817 24.99089584 -21.10205383 25.64194794 -21.74624634 26.31272888 C-25.34450041 29.91324714 -27.67476206 31.84079433 -33 32 C-34.64678163 31.97200217 -36.29343385 31.91109068 -37.9375 31.8125 C-42.92587666 31.79002983 -46.26124447 32.6218351 -50 36 C-53.18947244 39.65898869 -55.28328218 43.20644771 -55.5 48.125 C-54.78845401 53.63948144 -53.20867038 57.13867814 -49.0625 60.8125 C-44.13788688 64.3300808 -38.94922694 64.85824913 -33 64 C-28.63459809 62.24779716 -25.73058899 60.06053241 -23.0625 56.1875 C-22.18666028 53.55998084 -21.80625574 51.63912608 -21.5625 48.9375 C-20.7365155 43.15560849 -17.95392103 40.78648312 -13.6796875 37.171875 C-8.01666005 32.23690514 -2.75207915 26.90169046 2.54711914 21.58325195 C4.32259704 19.80237224 6.10341244 18.02695394 7.88476562 16.25195312 C9.02375861 15.1123 10.16244171 13.97233707 11.30078125 12.83203125 C11.82891922 12.30591751 12.35705719 11.77980377 12.90119934 11.23774719 C15.49476182 8.62765192 17.88939667 6.01791499 20 3 C19.97162162 7.53344565 18.61282464 9.75582832 15.578125 12.91015625 C14.14795395 14.30722149 12.70472065 15.69101601 11.25 17.0625 C10.53328125 17.75666016 9.8165625 18.45082031 9.078125 19.16601562 C7.68609241 20.51326776 6.28911955 21.85543838 4.88671875 23.19189453 C3.28109291 24.73061929 1.70341812 26.28917149 0.140625 27.87109375 C-2.11250156 30.11188568 -4.52008505 32.01606804 -7 34 C-11.29801483 38.07180353 -15.14090008 42.51810586 -19 47 C-18.01 47.495 -18.01 47.495 -17 48 C-17.66 48 -18.32 48 -19 48 C-19.0825 49.03125 -19.165 50.0625 -19.25 51.125 C-20.28370283 56.46579797 -22.46035914 59.54139287 -26.375 63.25 C-31.95835848 66.97223899 -37.43769178 67.71930866 -44 67 C-47.64347393 66.146742 -51.07354018 65.32351403 -53.3125 62.125 C-53.539375 61.42375 -53.76625 60.7225 -54 60 C-54.7734375 58.948125 -54.7734375 58.948125 -55.5625 57.875 C-58.10571865 52.7885627 -58.84633924 47.80756767 -57.1875 42.3046875 C-54.51588476 36.41658812 -51.61654069 33.16568657 -46 30 C-43.45246073 29.07350002 -42.01797334 28.99725265 -39.30395508 29.41210938 C-34.87313886 30.02966421 -31.04181149 30.28676075 -27.11956787 27.81494141 C-22.19358202 23.83925603 -17.96467176 19.14772015 -13.6875 14.5 C-12.35270078 13.09991081 -11.01483229 11.70274099 -9.67382812 10.30859375 C-6.41278195 6.90509934 -3.19606106 3.46454417 0 0 Z " fill="#011C37" transform="translate(160,130)"/>
<path d="M0 0 C0.66 0.33 1.32 0.66 2 1 C2.9910791 4.23752507 3.65208634 6.72534564 2.05078125 9.85546875 C1.15451396 11.16084304 0.25316119 12.46273534 -0.65234375 13.76171875 C-4.16765412 19.60019076 -5.8411646 27.27068321 -5 34 C-2.85816995 42.13169376 0.08376631 48.65410592 7.15234375 53.46484375 C15.89064622 58.3509286 26.14216453 60.31836148 35.9296875 57.81640625 C39.15798578 56.54336033 40.80323767 54.65923862 43 52 C44.34703306 50.68017973 45.70182355 49.36825006 47.0625 48.0625 C50.24819522 44.99035431 52.61781614 41.72978898 55 38 C54.55084229 37.5560791 54.10168457 37.1121582 53.63891602 36.65478516 C51.61084393 34.64746397 49.58663584 32.63629001 47.5625 30.625 C46.85544922 29.92632812 46.14839844 29.22765625 45.41992188 28.5078125 C44.74638672 27.8375 44.07285156 27.1671875 43.37890625 26.4765625 C42.7557251 25.85861816 42.13254395 25.24067383 41.49047852 24.60400391 C40 23 40 23 39 21 C38.30132812 21.09539062 37.60265625 21.19078125 36.8828125 21.2890625 C35.97273438 21.39992187 35.06265625 21.51078125 34.125 21.625 C32.76761719 21.79902344 32.76761719 21.79902344 31.3828125 21.9765625 C30.59648438 21.98429687 29.81015625 21.99203125 29 22 C28.34 21.34 27.68 20.68 27 20 C31.27753467 18.93061633 35.66692036 17.90068165 40 19 C43.89617355 21.86264659 46.82058588 25.59959587 49.91796875 29.27734375 C50.52253906 29.99019531 51.12710938 30.70304687 51.75 31.4375 C52.28109375 32.09621094 52.8121875 32.75492188 53.359375 33.43359375 C55.2196081 35.20967344 56.48897116 35.61242816 59 36 C57.72493789 39.63640476 56.31067028 42.09081044 53.6640625 44.8828125 C53.01179688 45.57503906 52.35953125 46.26726562 51.6875 46.98046875 C51.006875 47.68816406 50.32625 48.39585937 49.625 49.125 C48.61566406 50.19814453 48.61566406 50.19814453 47.5859375 51.29296875 C38.63822387 60.71624983 38.63822387 60.71624983 30.6796875 61.203125 C20.16032371 61.33272702 11.27259944 60.65645704 2.8203125 53.8125 C-0.39459141 50.61139397 -2.75887496 46.92553749 -5 43 C-5.36609375 42.37480469 -5.7321875 41.74960938 -6.109375 41.10546875 C-8.89993645 34.50848356 -8.65870447 26.77717974 -6.3125 20.125 C-5.01641331 17.00445678 -3.54807399 14.16750637 -1.75 11.3125 C0.46527306 7.11930456 0.32773566 4.67023313 0 0 Z " fill="#011D38" transform="translate(31,110)"/>
<path d="M0 0 C2.42801255 1.95425401 3.6276756 3.25535119 5 6 C5.09195619 8.21602644 5.11750018 10.43490207 5.11352539 12.65283203 C5.11367142 13.33587402 5.11381744 14.01891602 5.1139679 14.72265625 C5.11327023 16.9844071 5.10548465 19.246076 5.09765625 21.5078125 C5.09579155 23.07437088 5.09436789 24.64092984 5.09336853 26.20748901 C5.08954743 30.33389898 5.0797206 34.46027384 5.06866455 38.58666992 C5.0584417 42.79605637 5.05386903 47.00544847 5.04882812 51.21484375 C5.03809798 59.47657862 5.02102642 67.73828495 5 76 C4.67 76 4.34 76 4 76 C3.20792314 71.81915435 2.87779563 67.88014108 2.88647461 63.62744141 C2.88655014 62.38660797 2.88662567 61.14577454 2.88670349 59.86734009 C2.89180887 58.52874714 2.89702485 57.19015461 2.90234375 55.8515625 C2.90421094 54.47008312 2.90563342 53.08860308 2.90663147 51.7071228 C2.91043298 48.08711897 2.92024284 44.46715583 2.93133545 40.84716797 C2.94160065 37.14681549 2.94614 33.44645639 2.95117188 29.74609375 C2.96186742 22.49737736 2.97891515 15.2486944 3 8 C2.01 8 1.02 8 0 8 C0.33 7.34 0.66 6.68 1 6 C-2.72579953 1.52904056 -6.49538908 0.35169511 -12.21875 -0.22265625 C-24.32806933 -0.67478993 -35.80769551 2.64367479 -44.94921875 10.72265625 C-46.34749685 12.10137802 -47.68253815 13.54385796 -49 15 C-44.05 15.99 -39.1 16.98 -34 18 C-34 18.66 -34 19.32 -34 20 C-33.34 20 -32.68 20 -32 20 C-32 20.66 -32 21.32 -32 22 C-34.73332093 21.51764925 -37.24862665 20.91352117 -39.875 20 C-43.05613637 18.87159258 -43.05613637 18.87159258 -46.75 18.5625 C-47.8225 18.376875 -48.895 18.19125 -50 18 C-50.66 17.01 -51.32 16.02 -52 15 C-45.04252728 5.78604964 -36.18974948 0.59299008 -25 -2 C-24.35160156 -2.18304687 -23.70320313 -2.36609375 -23.03515625 -2.5546875 C-15.30960196 -4.24511589 -7.19063961 -3.16762377 0 0 Z " fill="#001D38" transform="translate(124,26)"/>
<path d="M0 0 C7.84707267 2.46622284 12.04175922 9.19000074 16 16 C19.71467598 23.75922667 21.69215753 33.55487059 19.46875 42.0234375 C18.0347072 45.71765644 16.51549293 48.13885669 13 50 C9.57867735 51.26048729 8.27719025 51.10326696 4.8125 49.8125 C1.79938205 47.87071288 1.19942486 47.25558177 0 44 C-0.19424755 41.79667774 -0.31126974 39.58594992 -0.375 37.375 C-0.74611937 31.24513175 -1.38203086 25.15028548 -5 20 C-7.49410483 18.80117194 -7.49410483 18.80117194 -10 18 C-11 17 -12 16 -13 15 C-21.87622808 11.92907749 -32.50691038 13.47810967 -40.828125 17.22265625 C-43 18 -43 18 -46 17 C-44.3970947 16.18501438 -42.79262722 15.37310073 -41.1875 14.5625 C-39.84751953 13.88380859 -39.84751953 13.88380859 -38.48046875 13.19140625 C-30.71023027 9.45924446 -19.56564056 9.65264212 -11.4375 12.5 C-5.55731587 15.29631016 -1.34001312 19.78125227 1.15625 25.77734375 C2.44368967 30.69464805 2.4560756 35.57731081 2.65625 40.63671875 C2.74854501 44.12897796 2.74854501 44.12897796 5 47 C9.17660573 47.26518132 12.04340734 47.31886422 16 46 C18.86240306 34.74855413 16.62630326 21.96885844 11 12 C8.76611882 8.50379866 6.16409919 6.00244455 2.6875 3.75 C1.800625 3.1725 0.91375 2.595 0 2 C0 1.34 0 0.68 0 0 Z " fill="#011930" transform="translate(93,48)"/>
<path d="M0 0 C5.03656166 2.83495087 8.37542504 6.88995803 11.1875 11.875 C12.74721566 18.26983419 12.11428373 22.73648242 9.17578125 28.48046875 C7.8125 30.4375 7.8125 30.4375 5.27148438 32.5234375 C1.98184591 36.42188118 2.0806474 39.07423418 2.10546875 44.01953125 C2.09034744 44.83371017 2.07522614 45.6478891 2.05964661 46.48674011 C2.01682563 49.07477636 2.00793753 51.66164505 2 54.25 C1.97685117 56.00979654 1.95148502 57.76956541 1.92382812 59.52929688 C1.86103168 63.83213419 1.82865265 68.134245 1.8125 72.4375 C0.8225 72.9325 0.8225 72.9325 -0.1875 73.4375 C-0.31116591 67.95662668 -0.40186943 62.47656643 -0.4621582 56.99462891 C-0.48729147 55.13022719 -0.52140383 53.2659239 -0.56469727 51.40185547 C-0.62540352 48.72078169 -0.65372058 46.04101098 -0.67578125 43.359375 C-0.70158768 42.52694275 -0.7273941 41.6945105 -0.75398254 40.83685303 C-0.75506711 38.59535108 -0.70146576 36.6197322 -0.1875 34.4375 C2.19848633 32.07519531 2.19848633 32.07519531 4.8125 30.4375 C8.37055382 25.62931916 9.52158967 21.93438662 9.265625 15.9375 C8.29425493 10.57821683 5.54110925 6.74449724 1.25 3.5 C-3.97984327 1.22032473 -9.58126609 0.22813671 -15.12109375 2.0859375 C-18.88253982 3.97879423 -21.51418873 6.33213701 -23.4765625 10.15625 C-25.0128046 15.08573016 -25.03324382 20.30848193 -25.1875 25.4375 C-27.1875 24.4375 -27.1875 24.4375 -28 22 C-28.37155195 14.94051296 -25.86511088 7.74722046 -21.1875 2.4375 C-14.64733182 -2.31898595 -7.43274486 -3.27040774 0 0 Z " fill="#011C35" transform="translate(180.1875,58.5625)"/>
<path d="M0 0 C0.66 0 1.32 0 2 0 C-2.12077263 9.17136062 -10.4998381 16.77448584 -17.39379883 23.96435547 C-25.01984622 31.75419756 -25.01984622 31.75419756 -27.8125 41.9375 C-27.86019531 42.89527344 -27.90789062 43.85304687 -27.95703125 44.83984375 C-27.97121094 45.55269531 -27.98539062 46.26554687 -28 47 C-27.34 47.33 -26.68 47.66 -26 48 C-25.896875 48.721875 -25.79375 49.44375 -25.6875 50.1875 C-24.576608 54.7320582 -21.96885049 57.67060523 -18.171875 60.234375 C-13.48259554 62.78209376 -9.29946548 63.62146675 -4 64 C-4 64.66 -4 65.32 -4 66 C-2.35 66 -0.7 66 1 66 C1 65.34 1 64.68 1 64 C1.49371094 64.13664062 1.98742187 64.27328125 2.49609375 64.4140625 C6.69928102 65.39764766 10.98025239 66.04691085 15.24414062 66.71875 C21.74068257 67.85277961 21.74068257 67.85277961 24 71 C22.081875 70.5359375 22.081875 70.5359375 20.125 70.0625 C15.89401866 69.19229816 11.81772234 68.85538808 7.51708984 68.70678711 C-5.22159372 68.25955812 -15.63779243 66.67470757 -25.03125 57.28125 C-29.98165568 51.54506565 -30.35225666 46.26217862 -30.49609375 38.96484375 C-29.40364684 32.43596814 -24.23332149 27.91948856 -19.8125 23.3125 C-13.44069516 16.56751892 -7.47520362 9.6016048 -1.87890625 2.19140625 C-1.25886719 1.46824219 -0.63882813 0.74507812 0 0 Z " fill="#011C34" transform="translate(111,146)"/>
<path d="M0 0 C2.05599695 3.40107241 2.25756 6.04428951 2.2746582 9.98681641 C2.28895622 11.79987778 2.28895622 11.79987778 2.30354309 13.64956665 C2.30263168 14.95372528 2.30172028 16.25788391 2.30078125 17.6015625 C2.30467235 18.9619459 2.30900788 20.3223281 2.31376648 21.68270874 C2.32122467 24.53574556 2.32094231 27.38865866 2.31567383 30.24169922 C2.30990785 33.87284817 2.32674161 37.50348226 2.3500185 41.13454628 C2.36486234 43.94695937 2.36561273 46.7592519 2.36250877 49.57169724 C2.36326292 51.55340579 2.37706389 53.5350958 2.39118958 55.51675415 C2.3187791 69.78799905 -1.38654911 78.47811644 -11.1875 88.6875 C-16.12313218 93.893435 -20.71590602 99.20528305 -25.09765625 104.890625 C-26.97793692 106.97553581 -28.41814923 107.9649596 -31 109 C-29.71104283 106.18648214 -28.33731495 104.0674293 -26.20703125 101.828125 C-25.66248291 101.2501416 -25.11793457 100.6721582 -24.55688477 100.07666016 C-23.69341431 99.17246338 -23.69341431 99.17246338 -22.8125 98.25 C-21.62947164 96.99288037 -20.44717376 95.73507288 -19.265625 94.4765625 C-18.69908203 93.87489258 -18.13253906 93.27322266 -17.54882812 92.65332031 C-5.03414507 79.76456492 -5.03414507 79.76456492 -0.68115234 63.0065918 C-0.67110672 62.32311172 -0.6610611 61.63963165 -0.65071106 60.93544006 C-0.61997095 58.69004103 -0.60286986 56.44476074 -0.5859375 54.19921875 C-0.56721843 52.63693731 -0.54764446 51.07466589 -0.5272522 49.5124054 C-0.47600291 45.41077599 -0.43633879 41.30911384 -0.39910889 37.20733643 C-0.35902395 33.01769964 -0.30795213 28.82819826 -0.2578125 24.63867188 C-0.16113856 16.42587387 -0.07670665 8.21300865 0 0 Z " fill="#002339" transform="translate(145,36)"/>
<path d="M0 0 C10.91577212 1.16434903 20.14362635 9.88860612 27 18 C31.44137384 23.79621717 34.21695108 29.33921266 36.375 36.3125 C38.35859317 42.29579743 40.19540415 44.61650941 45.66015625 47.58984375 C53.38979014 52.24827085 60.42598259 62.34194144 63 71 C63.125 73.8125 63.125 73.8125 63 76 C61.13576129 73.20364194 59.88169156 70.55257439 58.5 67.5 C54.50136035 59.4539568 48.92946909 51.70721271 40.6875 47.6875 C35.60535837 44.89690519 34.84620335 39.81563867 33.203125 34.57421875 C27.6832432 18.17586861 14.73889532 8.72545962 0 1 C0 0.67 0 0.34 0 0 Z " fill="#011932" transform="translate(189,11)"/>
<path d="M0 0 C1.12547241 0.00737183 1.12547241 0.00737183 2.27368164 0.01489258 C15.43126343 0.29045143 27.13534267 5.05922289 36.76953125 14.0625 C42.55047801 20.42927884 47.11011046 28.27538329 47.0625 37 C47.07023437 38.42892578 47.07023437 38.42892578 47.078125 39.88671875 C46.8125 42.3125 46.8125 42.3125 44.8125 44.3125 C43.82404607 41.34713822 43.73760537 39.5175416 43.8125 36.4375 C43.87119203 31.30850653 43.87119203 31.30850653 42.8125 26.3125 C42.1525 25.9825 41.4925 25.6525 40.8125 25.3125 C40.3175 24.3225 39.8225 23.3325 39.3125 22.3125 C33.80831661 12.5650916 24.30583121 6.94221452 13.84179688 3.81689453 C4.699532 1.54452696 -4.52589724 1.29033044 -13.1875 5.3125 C-14.1775 5.6425 -15.1675 5.9725 -16.1875 6.3125 C-15.5625 4.4375 -15.5625 4.4375 -14.1875 2.3125 C-9.49720026 0.28406991 -5.04304251 -0.03907579 0 0 Z " fill="#011A32" transform="translate(163.1875,23.6875)"/>
<path d="M0 0 C4.25301838 5.63237569 4.50203701 10.06910016 4 17 C3.67 17 3.34 17 3 17 C2.90203125 16.34773438 2.8040625 15.69546875 2.703125 15.0234375 C1.76154102 9.52004149 0.77877547 5.31860053 -3 1 C-8.71559157 -1.87275807 -14.75735274 -1.88303129 -21 -1 C-24.94701584 0.97681363 -27.23350418 3.42283741 -29.15234375 7.37109375 C-30.9669735 12.99895469 -31.13833994 19.57059487 -28.4375 24.9375 C-25.53094798 28.58932177 -23.16915689 29.99559765 -19 32 C-20.77734375 32.66015625 -20.77734375 32.66015625 -23 33 C-27.75832608 30.37012946 -31.3807549 26.14348444 -33 21 C-33.68509675 14.85982042 -34.03260299 8.78919155 -30.3984375 3.53125 C-26.87939092 -0.32200771 -23.07166181 -3.27942198 -18.125 -5 C-11.89034492 -5 -4.86851816 -4.15255961 0 0 Z " fill="#01182E" transform="translate(76,97)"/>
<path d="M0 0 C0.66 0 1.32 0 2 0 C2.03867188 1.52753906 2.03867188 1.52753906 2.078125 3.0859375 C2.37107522 11.18992682 3.16514005 18.95122257 4.9375 26.875 C5.19225098 28.02427979 5.19225098 28.02427979 5.45214844 29.19677734 C6.25924457 32.61348429 7.03400342 35.05100513 9 38 C9.22320638 40.79442788 9.32443614 43.45694407 9.3125 46.25 C9.32861328 46.98863281 9.34472656 47.72726563 9.36132812 48.48828125 C9.36593906 53.71707639 8.50128095 57.38405295 6 62 C2.77208445 64.1519437 1.71599191 64.20086443 -2 64 C-2 63.34 -2 62.68 -2 62 C-1.05125 61.79375 -0.1025 61.5875 0.875 61.375 C4.21199301 60.32545624 4.21199301 60.32545624 5.17578125 57.34765625 C7.23846065 48.96985414 6.99293884 40.65313278 3 33 C3 31.68 3 30.36 3 29 C2.34 28.67 1.68 28.34 1 28 C1.020625 26.948125 1.04125 25.89625 1.0625 24.8125 C1.13349487 21.24094107 1.13349487 21.24094107 0.5 18.78125 C-0.16549995 15.07940651 -0.10601611 11.433233 -0.0625 7.6875 C-0.05798828 6.94693359 -0.05347656 6.20636719 -0.04882812 5.44335938 C-0.03712175 3.62887101 -0.01918898 1.81442466 0 0 Z " fill="#01172F" transform="translate(163,183)"/>
<path d="M0 0 C0.66 0 1.32 0 2 0 C1.690625 0.763125 1.38125 1.52625 1.0625 2.3125 C-0.47004281 6.18893182 -1.13659916 9.09750195 -1.125 13.25 C-1.12757813 14.16265625 -1.13015625 15.0753125 -1.1328125 16.015625 C-1.08989504 19.09084318 -1.08989504 19.09084318 -0.19873047 22.36010742 C0 26 0 26 -1.88671875 28.68383789 C-2.81097656 29.52164795 -3.73523438 30.35945801 -4.6875 31.22265625 C-5.18282227 31.69005722 -5.67814453 32.15745819 -6.18847656 32.63902283 C-7.77448623 34.13418807 -9.38325804 35.6006656 -11 37.0625 C-19.73822059 44.97036158 -25.39393915 52.02715478 -30 63 C-30.33 63 -30.66 63 -31 63 C-30.32935032 52.26960511 -23.1096337 45.48755443 -16 38 C-15.24460938 37.20335937 -14.48921875 36.40671875 -13.7109375 35.5859375 C-9.70676665 31.46528168 -9.70676665 31.46528168 -8 30 C-7.34 30 -6.68 30 -6 30 C-5.566875 29.1028125 -5.566875 29.1028125 -5.125 28.1875 C-4 26 -4 26 -2 23 C-2.61119592 21.31220209 -3.28586382 19.64688547 -4 18 C-4.90797761 10.84175791 -4.18195551 5.88087493 0 0 Z " fill="#001E3B" transform="translate(196,119)"/>
<path d="M0 0 C0.33 0.99 0.66 1.98 1 3 C0.57589844 3.4125 0.15179688 3.825 -0.28515625 4.25 C-4.10811166 8.01414071 -7.73580477 11.88259089 -11.23046875 15.953125 C-12.44285725 17.35553466 -13.67586913 18.7403029 -14.92578125 20.109375 C-20.09219275 25.7999152 -22.50220775 30.15977202 -23 38 C-22.20689979 46.36484935 -22.20689979 46.36484935 -19 54 C-15.81237635 56.12508244 -13.73487777 56.5020163 -10 57 C-10.33 57.66 -10.66 58.32 -11 59 C-17.25259516 58.51903114 -17.25259516 58.51903114 -20.25 56.4375 C-25.59601999 48.99125787 -25.99875931 40.93008328 -25 32 C-23.49667799 25.98156109 -20.76477784 22.03057584 -16.4375 17.6875 C-15.36796081 16.57342406 -14.29896024 15.45883081 -13.23046875 14.34375 C-12.69341309 13.79074219 -12.15635742 13.23773438 -11.60302734 12.66796875 C-9.09550751 10.05886496 -6.6732528 7.37464073 -4.25 4.6875 C-3.02023438 3.33205078 -3.02023438 3.33205078 -1.765625 1.94921875 C-1.18296875 1.30597656 -0.6003125 0.66273438 0 0 Z " fill="#011C36" transform="translate(205,154)"/>
<path d="M0 0 C0.66 0 1.32 0 2 0 C1.99476318 0.76143311 1.98952637 1.52286621 1.98413086 2.30737305 C1.96330475 5.76740692 1.95032187 9.22742759 1.9375 12.6875 C1.92912109 13.88568359 1.92074219 15.08386719 1.91210938 16.31835938 C1.90727539 18.05375977 1.90727539 18.05375977 1.90234375 19.82421875 C1.89710693 20.88729248 1.89187012 21.95036621 1.88647461 23.0456543 C1.91666359 25.97614727 1.91666359 25.97614727 2.56396484 28.69433594 C3.21081827 32.11476358 1.95906942 34.3567123 0.6875 37.5625 C-2.74419223 46.79985524 -3.33588405 56.23650434 -4 66 C-6.85772673 63.14227327 -6.33417955 61.11723954 -6.375 57.125 C-6.37298434 48.75698278 -4.03554622 41.83608531 -0.8046875 34.16015625 C0.19906413 30.21823844 -0.33232506 26.93191347 -1 23 C-2.18749509 14.92379457 -1.65504727 8.03334481 0 0 Z " fill="#011A33" transform="translate(12,83)"/>
<path d="M0 0 C2.40130082 2.40130082 3.04637589 4.45545652 4.25 7.625 C7.91741251 16.67754709 7.91741251 16.67754709 15 23 C15 23.66 15 24.32 15 25 C15.52078125 25.2578125 16.0415625 25.515625 16.578125 25.78125 C18.45081813 26.72363751 20.31352686 27.68588102 22.171875 28.65625 C33.47024706 34.51665002 42.22926239 36.31841569 55 37 C52.30127088 39.69872912 50.80606534 39.72844607 47 40 C43.86714781 39.55453958 40.86064377 38.7778775 37.8125 37.9375 C36.96824463 37.70635498 36.12398926 37.47520996 35.25415039 37.23706055 C20.6353229 33.04521666 9.60957692 24.9081494 2.05078125 11.47265625 C0.40962485 7.61075289 0.13477523 4.17803201 0 0 Z " fill="#021B33" transform="translate(8,150)"/>
<path d="M0 0 C0.66 0 1.32 0 2 0 C0.71808915 3.74910611 -0.6518516 5.95543561 -3.5625 8.625 C-8.51592887 13.38029172 -12.71173369 18.64987727 -17 24 C-17.99642417 25.19050204 -18.99563935 26.37868586 -20 27.5625 C-22.00138513 29.81808601 -22.00138513 29.81808601 -23 32 C-26.2268998 30.57937485 -28.39942512 28.85754559 -30.890625 26.375 C-31.59960938 25.66859375 -32.30859375 24.9621875 -33.0390625 24.234375 C-33.76867187 23.49703125 -34.49828125 22.7596875 -35.25 22 C-36.36761719 20.89398438 -36.36761719 20.89398438 -37.5078125 19.765625 C-38.21164063 19.05921875 -38.91546875 18.3528125 -39.640625 17.625 C-40.28547852 16.97789063 -40.93033203 16.33078125 -41.59472656 15.6640625 C-43 14 -43 14 -43 12 C-40.13302508 13.28519565 -38.02392288 14.57129254 -36 17 C-36 17.66 -36 18.32 -36 19 C-35.01 19.33 -34.02 19.66 -33 20 C-33 20.66 -33 21.32 -33 22 C-32.443125 22.226875 -31.88625 22.45375 -31.3125 22.6875 C-28.36753316 24.35896766 -26.31843456 26.55276352 -24 29 C-24 28.34 -24 27.68 -24 27 C-23.34 27 -22.68 27 -22 27 C-21.66548828 26.18789062 -21.66548828 26.18789062 -21.32421875 25.359375 C-19.57918648 22.25023196 -17.24679388 19.82155227 -14.8125 17.25 C-13.81966888 16.18419294 -12.82748206 15.11778533 -11.8359375 14.05078125 C-11.11035645 13.27275146 -11.11035645 13.27275146 -10.37011719 12.47900391 C-8.52889771 10.49145801 -6.72663315 8.47197841 -4.9375 6.4375 C-4.41027344 5.83808594 -3.88304687 5.23867187 -3.33984375 4.62109375 C-1.8116003 2.82845565 -1.8116003 2.82845565 0 0 Z " fill="#001934" transform="translate(124,106)"/>
<path d="M0 0 C0.66 0.33 1.32 0.66 2 1 C1.67386719 1.50789063 1.34773438 2.01578125 1.01171875 2.5390625 C0.57472656 3.22742187 0.13773438 3.91578125 -0.3125 4.625 C-0.74175781 5.29789063 -1.17101563 5.97078125 -1.61328125 6.6640625 C-3.10846489 9.06565119 -3.10846489 9.06565119 -4.3203125 12.09375 C-6.35572533 15.61548755 -7.85646888 16.31914339 -11.5625 17.875 C-25.98966198 24.55650307 -36.39381697 36.13832613 -42 51 C-42.8944862 48.53594369 -43.09724895 47.30290655 -42.28515625 44.7734375 C-38.9682207 38.26673326 -35.08936741 32.28035912 -30 27 C-29.34 27 -28.68 27 -28 27 C-28 26.34 -28 25.68 -28 25 C-23.35356634 21.07524646 -18.35143277 18.0739987 -12.75 15.75 C-7.42500464 13.26332764 -5.57888799 9.6302274 -3.15625 4.42578125 C-2 2 -2 2 0 0 Z " fill="#011C36" transform="translate(57,31)"/>
<path d="M0 0 C6.85515245 -0.61206718 10.68436232 0.62178941 16 5 C23.32413215 11.72746151 27.03517357 18.95721864 27.46899414 28.95507812 C27.57251045 35.99092712 26.78361418 41.91919149 23 48 C22 45 22 45 22.9140625 42.30078125 C24.15083094 38.54153903 24.38431625 35.10311844 24.375 31.1875 C24.37338867 30.48189941 24.37177734 29.77629883 24.37011719 29.04931641 C24.23262037 23.18682956 23.05452521 18.94239148 20 14 C19.4225 12.9275 18.845 11.855 18.25 10.75 C14.5072717 6.1755543 9.80805849 3.20569071 4 2 C3.67 2.66 3.34 3.32 3 4 C3 3.01 3 2.02 3 1 C2.01 0.67 1.02 0.34 0 0 Z " fill="#011C34" transform="translate(210,70)"/>
<path d="M0 0 C0.33 0 0.66 0 1 0 C1.74086324 11.29816443 -2.22754585 20.11217882 -9 29 C-9.50144531 29.67804688 -10.00289062 30.35609375 -10.51953125 31.0546875 C-16.10193474 38.03608748 -24.35078296 44.41941393 -33 47 C-35.3125 46.625 -35.3125 46.625 -37 46 C-36.2265625 45.63648438 -35.453125 45.27296875 -34.65625 44.8984375 C-19.8180486 37.73643435 -9.12603504 28.72539835 -3 13 C-1.78255778 8.6999022 -0.80802094 4.39449986 0 0 Z " fill="#011A32" transform="translate(255,155)"/>
<path d="M0 0 C4.48804998 2.5479965 7.80560914 5.33377629 10.0625 10.0625 C10.93677233 14.19542375 10.91824189 18.10645286 10.75 22.3125 C10.09 22.6425 9.43 22.9725 8.75 23.3125 C8.65203125 22.44367188 8.5540625 21.57484375 8.453125 20.6796875 C7.41058732 11.71769666 7.41058732 11.71769666 2.75 4.3125 C-0.77725429 1.98257056 -3.96409124 2.01342229 -8.125 2 C-9.91550781 1.97486328 -9.91550781 1.97486328 -11.7421875 1.94921875 C-15.53579715 2.34209815 -17.9725402 3.41317696 -21.25 5.3125 C-20.237668 2.37673721 -19.28642058 1.33737259 -16.6875 -0.4375 C-10.83103665 -2.56712304 -5.70621493 -2.64854504 0 0 Z " fill="#011D39" transform="translate(220.25,113.6875)"/>
<path d="M0 0 C1.31322788 0.97819024 2.62556152 1.9575811 3.9375 2.9375 C4.66839844 3.48277344 5.39929688 4.02804688 6.15234375 4.58984375 C8 6 8 6 9 7 C9.11327366 9.49754141 9.16417191 11.9663999 9.16796875 14.46484375 C9.17129715 15.21335098 9.17462555 15.96185822 9.17805481 16.73304749 C9.18312693 18.31933984 9.18546305 19.9056429 9.18530273 21.49194336 C9.18748773 23.92384369 9.20563581 26.35528949 9.22460938 28.78710938 C9.22754349 30.32551928 9.22952817 31.86393134 9.23046875 33.40234375 C9.23765427 34.13259262 9.24483978 34.86284149 9.25224304 35.61521912 C9.22882307 40.77117693 9.22882307 40.77117693 7 43 C6.97526132 39.06731133 6.95712165 35.13465287 6.94506836 31.2019043 C6.93757271 29.20685232 6.92486655 27.21182214 6.91210938 25.21679688 C6.90888672 23.96318359 6.90566406 22.70957031 6.90234375 21.41796875 C6.89710693 20.26063232 6.89187012 19.1032959 6.88647461 17.91088867 C7 15 7 15 8 12 C6.68 11.67 5.36 11.34 4 11 C4.33 10.34 4.66 9.68 5 9 C4.175 8.071875 3.35 7.14375 2.5 6.1875 C0 3.375 0 3.375 0 0 Z " fill="#01223A" transform="translate(156,86)"/>
<path d="M0 0 C0.66 0.33 1.32 0.66 2 1 C-1.19480074 9.81682024 -7.09556016 15.69670204 -13.4765625 22.2890625 C-17.33200081 26.28507443 -20.74932674 30.52198364 -24.1328125 34.92578125 C-25.99475314 36.99417137 -27.44090407 37.97067475 -30 39 C-28.71104283 36.18648214 -27.33731495 34.0674293 -25.20703125 31.828125 C-24.39020874 30.9611499 -24.39020874 30.9611499 -23.55688477 30.07666016 C-22.69341431 29.17246338 -22.69341431 29.17246338 -21.8125 28.25 C-20.62947164 26.99288037 -19.44717376 25.73507288 -18.265625 24.4765625 C-17.69908203 23.87489258 -17.13253906 23.27322266 -16.54882812 22.65332031 C-6.56294289 12.43025058 -6.56294289 12.43025058 0 0 Z " fill="#011931" transform="translate(144,106)"/>
<path d="M0 0 C0.66 0 1.32 0 2 0 C1.54979057 5.85272256 -1.03839227 10.08220119 -4 15 C-4.66 15 -5.32 15 -6 15 C-6.23460937 15.58652344 -6.46921875 16.17304688 -6.7109375 16.77734375 C-10.44741738 23.21994087 -19.07013734 27.05477539 -26 29 C-26.99 28.67 -27.98 28.34 -29 28 C-28.12988281 27.63648438 -28.12988281 27.63648438 -27.2421875 27.265625 C-23.49369637 25.65736148 -19.92089623 24.08337704 -16.5625 21.75 C-14 20 -14 20 -12 20 C-12 19.34 -12 18.68 -12 18 C-11.278125 17.46375 -10.55625 16.9275 -9.8125 16.375 C-4.66590712 12.02898824 -1.77864587 6.46780316 0 0 Z " fill="#011F3A" transform="translate(236,159)"/>
<path d="M0 0 C0 0.66 0 1.32 0 2 C-2.31 2.33 -4.62 2.66 -7 3 C-7 4.98 -7 6.96 -7 9 C-3.95086772 10.01111093 -3.95086772 10.01111093 -1 9 C-0.26924352 6.6859378 0.40138258 4.35171131 1 2 C3 4 3 4 3.125 6.625 C3.08375 7.40875 3.0425 8.1925 3 9 C2.34 9 1.68 9 1 9 C0.67 9.99 0.34 10.98 0 12 C-2.6875 12.8125 -2.6875 12.8125 -6 13 C-8.9375 10.9375 -8.9375 10.9375 -11 8 C-11.0715787 4.42106498 -10.6663269 2.765042 -8.3125 0.0625 C-5.21524075 -1.36056506 -3.24533993 -0.81133498 0 0 Z " fill="#002243" transform="translate(216,126)"/>
<path d="M0 0 C-3.0170314 2.01135427 -5.58549027 2.95126228 -9 4.125 C-19.00691248 7.91380874 -26.8200321 14.15839683 -34 22 C-34 17.99829941 -32.65424766 16.93129034 -30 14 C-21.50028864 6.83091438 -11.42991889 -0.2539982 0 0 Z " fill="#011A32" transform="translate(94,8)"/>
<path d="M0 0 C1.55733038 3.07861144 3.04803063 6.18279772 4.5 9.3125 C4.9228125 10.21613281 5.345625 11.11976563 5.78125 12.05078125 C8.26542395 18.06216371 9.27595941 23.30317822 9.25 29.8125 C9.25515625 31.11832031 9.2603125 32.42414063 9.265625 33.76953125 C9 37 9 37 7 39 C6.97421875 37.99582031 6.9484375 36.99164063 6.921875 35.95703125 C6.5565701 26.14322961 5.49422166 16.72059358 0.87890625 7.84375 C-0.37349679 5.21648674 -0.13021605 2.86475317 0 0 Z " fill="#011C33" transform="translate(231,119)"/>
<path d="M0 0 C9.21420796 1.41757045 15.49378519 10.34094812 20.72265625 17.2890625 C24.11446148 22.33425468 24.11446148 22.33425468 23.6171875 25.2265625 C23.41351563 25.81179687 23.20984375 26.39703125 23 27 C22.52691406 26.16597656 22.05382812 25.33195312 21.56640625 24.47265625 C16.19750694 15.33610831 10.32541683 5.97131417 0 2 C0 1.34 0 0.68 0 0 Z " fill="#001A34" transform="translate(136,217)"/>
<path d="M0 0 C3.4375 0.8125 3.4375 0.8125 5.4375 3.8125 C5.8125 6.3125 5.8125 6.3125 5.4375 8.8125 C3.17670102 11.3341604 1.73284867 11.77030733 -1.625 12.25 C-4.5625 11.8125 -4.5625 11.8125 -6.5 10.1875 C-7.93754343 6.97416762 -7.57623739 5.14335144 -6.5625 1.8125 C-3.5625 -0.1875 -3.5625 -0.1875 0 0 Z M-3.5625 1.8125 C-4.2225 3.7925 -4.8825 5.7725 -5.5625 7.8125 C-4.33440909 9.45805699 -4.33440909 9.45805699 -2.5625 10.8125 C-0.44207244 10.9701585 -0.44207244 10.9701585 1.4375 9.8125 C2.73410434 7.32215614 2.73410434 7.32215614 3.4375 4.8125 C2.1886573 3.2291747 2.1886573 3.2291747 0.4375 1.8125 C-0.8825 1.8125 -2.2025 1.8125 -3.5625 1.8125 Z " fill="#001934" transform="translate(122.5625,172.1875)"/>
<path d="M0 0 C1.67542976 0.28604898 3.34385343 0.61781233 5 1 C3.68 1.33 2.36 1.66 1 2 C1.18820313 2.54140625 1.37640625 3.0828125 1.5703125 3.640625 C2.84043437 10.61474871 -0.77142896 18.7014769 -4.66015625 24.375 C-6.51764131 26.62780987 -8.59869461 28.35339059 -11 30 C-11 29.01 -11 28.02 -11 27 C-10.236875 26.2575 -9.47375 25.515 -8.6875 24.75 C-2.79390535 18.71934501 -2.40252357 12.02102975 -1.4296875 3.9140625 C-1 1 -1 1 0 0 Z " fill="#021934" transform="translate(188,229)"/>
<path d="M0 0 C2.625 -0.1875 2.625 -0.1875 5 0 C4.360625 0.4125 3.72125 0.825 3.0625 1.25 C0.7598433 3.20376932 0.27739881 4.04107936 0 7 C0.33 7.99 0.66 8.98 1 10 C2.65 10.33 4.3 10.66 6 11 C6.93786082 5.94990405 6.93786082 5.94990405 6 1 C7.32 1.66 8.64 2.32 10 3 C10.25 6.3125 10.25 6.3125 10 10 C7.89172636 12.42061048 6.59654522 12.9127007 3.4375 13.375 C1 13 1 13 -0.8125 11.9375 C-2.65150018 8.93702602 -2.30671285 6.43518387 -2 3 C-1.34 2.01 -0.68 1.02 0 0 Z " fill="#001B34" transform="translate(58,105)"/>
<path d="M0 0 C0.33 0.99 0.66 1.98 1 3 C-1.73556197 8.3571422 -4.75212552 10.47324562 -10 13 C-10.66 13 -11.32 13 -12 13 C-12.33 13.66 -12.66 14.32 -13 15 C-15.64 15 -18.28 15 -21 15 C-18.59748841 11.39623262 -17.82657902 11.48264094 -13.75 10.625 C-8.52616031 9.31732847 -5.70515319 7.89516105 -2 4 C-0.62745412 1.85019503 -0.62745412 1.85019503 0 0 Z " fill="#011D38" transform="translate(228,138)"/>
<path d="M0 0 C0.33 0 0.66 0 1 0 C2.39589388 8.20087652 3.2582343 15.54808998 -1 23 C-3.1875 24.4375 -3.1875 24.4375 -5 25 C-4.505 23.515 -4.505 23.515 -4 22 C-3.34 22 -2.68 22 -2 22 C-0.78032509 17.0736568 -0.94285705 12.30964761 -1.0390625 7.26367188 C-1.09953535 2.1990707 -1.09953535 2.1990707 0 0 Z " fill="#01213D" transform="translate(111,72)"/>
<path d="M0 0 C0.99 0.33 1.98 0.66 3 1 C2.53722656 1.350625 2.07445312 1.70125 1.59765625 2.0625 C-0.68856983 4.83503823 -0.92260183 7.48970149 -1.5625 11 C-2.79697624 17.69546436 -2.79697624 17.69546436 -5 21 C-5.66 21 -6.32 21 -7 21 C-6.40790167 18.24689305 -5.80191979 15.49813214 -5.1875 12.75 C-4.9390332 11.58404297 -4.9390332 11.58404297 -4.68554688 10.39453125 C-3.75585503 6.28985407 -2.96379688 3.15911874 0 0 Z " fill="#011A31" transform="translate(203,189)"/>
<path d="M0 0 C6.8823177 -0.61449265 10.58664589 0.75242151 16 5 C17.86672692 6.5910118 19.38541545 8.13313661 21 10 C21 10.66 21 11.32 21 12 C20.34 12 19.68 12 19 12 C18.443125 11.2575 17.88625 10.515 17.3125 9.75 C13.8429206 5.62401368 9.43162605 2.86906017 4 2 C3.67 2.66 3.34 3.32 3 4 C3 3.01 3 2.02 3 1 C2.01 0.67 1.02 0.34 0 0 Z " fill="#011528" transform="translate(210,70)"/>
<path d="M0 0 C1.90845703 0.15275391 1.90845703 0.15275391 3.85546875 0.30859375 C4.83128906 0.39238281 5.80710937 0.47617187 6.8125 0.5625 C6.8125 0.8925 6.8125 1.2225 6.8125 1.5625 C5.59626953 1.60117187 5.59626953 1.60117187 4.35546875 1.640625 C-2.6879649 2.00140623 -8.45571411 3.02805207 -14.9453125 5.8203125 C-17.1875 6.5625 -17.1875 6.5625 -20.1875 5.5625 C-18.5845947 4.74751438 -16.98012722 3.93560073 -15.375 3.125 C-14.48167969 2.67253906 -13.58835937 2.22007813 -12.66796875 1.75390625 C-8.08635087 -0.44671336 -5.0323492 -0.41551507 0 0 Z " fill="#01213E" transform="translate(67.1875,59.4375)"/>
<path d="M0 0 C0.66 0.33 1.32 0.66 2 1 C1.60167969 1.56847656 1.20335937 2.13695312 0.79296875 2.72265625 C-2.38703409 7.35725893 -4.98935534 11.7499834 -7 17 C-7.33 17 -7.66 17 -8 17 C-7.56771676 10.08346812 -4.91361483 4.91361483 0 0 Z " fill="#01162B" transform="translate(173,165)"/>
<path d="M0 0 C1.67542976 0.28604898 3.34385343 0.61781233 5 1 C3.68 1.33 2.36 1.66 1 2 C1.18433594 2.56203125 1.36867187 3.1240625 1.55859375 3.703125 C2.07352759 6.38260374 1.72113422 8.11546311 1.0625 10.75 C0.77052734 11.94882813 0.77052734 11.94882813 0.47265625 13.171875 C0.31667969 13.77515625 0.16070312 14.3784375 0 15 C-2 13 -2 13 -2.01171875 10.21484375 C-1.90472656 9.13332031 -1.79773438 8.05179688 -1.6875 6.9375 C-1.58824219 5.85339844 -1.48898438 4.76929688 -1.38671875 3.65234375 C-1 1 -1 1 0 0 Z " fill="#022346" transform="translate(188,229)"/>
<path d="M0 0 C0.99 0.33 1.98 0.66 3 1 C3 2.65 3 4.3 3 6 C3.804375 6.28875 4.60875 6.5775 5.4375 6.875 C8 8 8 8 9 10 C6.13215478 10.2389871 4.32257137 10.14820847 1.6875 8.9375 C0 7 0 7 -0.25 3.3125 C-0.1675 2.219375 -0.085 1.12625 0 0 Z " fill="#001A31" transform="translate(166,73)"/>
<path d="M0 0 C0.70125 0.7425 1.4025 1.485 2.125 2.25 C4.97718006 4.97817223 7.6763063 6.91302954 11 9 C8 10 8 10 5.95703125 9.1796875 C3.82866043 7.88483167 1.86876226 6.6509578 0 5 C-0.5 2.1875 -0.5 2.1875 0 0 Z " fill="#001E3D" transform="translate(226,51)"/>
<path d="M0 0 C0.680625 0.27457031 1.36125 0.54914062 2.0625 0.83203125 C2.743125 1.09371094 3.42375 1.35539062 4.125 1.625 C6.18564991 2.70933392 7.51095672 3.92328792 9.0625 5.64453125 C8.4025 6.30453125 7.7425 6.96453125 7.0625 7.64453125 C6.381875 7.02578125 5.70125 6.40703125 5 5.76953125 C1.60368766 3.31262445 -0.89768821 2.5950752 -4.9375 1.64453125 C-1.9375 -0.35546875 -1.9375 -0.35546875 0 0 Z " fill="#002043" transform="translate(118.9375,24.35546875)"/>
<path d="M0 0 C0.33 0 0.66 0 1 0 C1.25 3.3125 1.25 3.3125 1 7 C-0.6875 8.9375 -0.6875 8.9375 -3 10 C-5.75 10.1875 -5.75 10.1875 -8 10 C-8 9.34 -8 8.68 -8 8 C-7.05125 7.79375 -6.1025 7.5875 -5.125 7.375 C-1.70833333 6.29166667 -1.70833333 6.29166667 -0.625 2.875 C-0.41875 1.92625 -0.2125 0.9775 0 0 Z " fill="#002140" transform="translate(169,237)"/>
<path d="M0 0 C-2 2 -2 2 -4.05859375 2.265625 C-4.84363281 2.26046875 -5.62867188 2.2553125 -6.4375 2.25 C-7.61119141 2.25773437 -7.61119141 2.25773437 -8.80859375 2.265625 C-11 2 -11 2 -14 0 C-8.97703996 -1.13016601 -5.02125926 -0.77916092 0 0 Z " fill="#011F3C" transform="translate(69,93)"/>
<path d="M0 0 C0.33 0.99 0.66 1.98 1 3 C-3.455 6.96 -3.455 6.96 -8 11 C-8.66 10.67 -9.32 10.34 -10 10 C-6.7 6.7 -3.4 3.4 0 0 Z " fill="#001429" transform="translate(156,158)"/>
<path d="M0 0 C2.74086056 -0.22223194 4.43963721 -0.34781139 6.8125 1.125 C8.49106106 3.77535957 8.20450238 5.93246424 8 9 C7.67 8.01 7.34 7.02 7 6 C6.34 5.67 5.68 5.34 5 5 C5 4.01 5 3.02 5 2 C3.02 2 1.04 2 -1 2 C-0.67 1.34 -0.34 0.68 0 0 Z " fill="#001427" transform="translate(170,70)"/>
<path d="M0 0 C0 0.66 0 1.32 0 2 C-1.6396875 2.2165625 -1.6396875 2.2165625 -3.3125 2.4375 C-6.93122987 2.88288104 -6.93122987 2.88288104 -10 4 C-7.53453745 -1.4592385 -5.69047474 -1.11335375 0 0 Z " fill="#011A30" transform="translate(216,126)"/>
<path d="M0 0 C0.66 0.33 1.32 0.66 2 1 C1.67 4.96 1.34 8.92 1 13 C-1.12087964 8.75824072 -1.25765477 6.6377859 -1 2 C-0.67 1.34 -0.34 0.68 0 0 Z " fill="#011726" transform="translate(24,134)"/>
<path d="M0 0 C2 2 2 2 2.1953125 4.3828125 C2.17210937 5.28773437 2.14890625 6.19265625 2.125 7.125 C2.10695312 8.03507812 2.08890625 8.94515625 2.0703125 9.8828125 C2.03550781 10.93082031 2.03550781 10.93082031 2 12 C1.34 11.67 0.68 11.34 0 11 C-0.99716532 7.01133873 -1.0502717 3.9676931 0 0 Z " fill="#001E3A" transform="translate(153,72)"/>
<path d="M0 0 C-4 1.33333333 -8 2.66666667 -12 4 C-11.375 2.125 -11.375 2.125 -10 0 C-5.79313872 -2.01197713 -3.98932727 -2.2968854 0 0 Z " fill="#01213F" transform="translate(159,26)"/>
<path d="M0 0 C0.66 0 1.32 0 2 0 C1.71125 0.70125 1.4225 1.4025 1.125 2.125 C-0.02133588 5.05452503 -1.02625654 8.00921653 -2 11 C-3.25 9.4375 -3.25 9.4375 -4 7 C-2.93237266 4.42998985 -1.53455057 2.3469597 0 0 Z " fill="#001429" transform="translate(196,119)"/>
<path d="M0 0 C0.66 0 1.32 0 2 0 C1.5205537 4.21912747 0.83374881 6.79663178 -2 10 C-1.54177532 6.53058454 -1.10868317 3.32604951 0 0 Z " fill="#011428" transform="translate(236,159)"/>
<path d="M0 0 C0.33 0 0.66 0 1 0 C1 4.33333333 1 8.66666667 1 13 C-0.5 11.625 -0.5 11.625 -2 10 C-2 9.34 -2 8.68 -2 8 C-1.34 8 -0.68 8 0 8 C0 5.36 0 2.72 0 0 Z " fill="#00294C" transform="translate(80,106)"/>
<path d="M0 0 C0.66 0 1.32 0 2 0 C2.84098656 4.01804691 3.05404945 7.01803543 2 11 C1.67 11 1.34 11 1 11 C0.67 7.37 0.34 3.74 0 0 Z " fill="#012342" transform="translate(164,200)"/>
<path d="M0 0 C0.66 0.33 1.32 0.66 2 1 C0.02 3.31 -1.96 5.62 -4 8 C-4.66 7.34 -5.32 6.68 -6 6 C-4.02 4.02 -2.04 2.04 0 0 Z " fill="#011931" transform="translate(83,153)"/>
<path d="M0 0 C3.36720387 1.39332574 4.9859524 2.9789286 7 6 C4 6 4 6 1.8125 4.125 C0 2 0 2 0 0 Z " fill="#011D36" transform="translate(81,118)"/>
<path d="M0 0 C-2.91403262 1.94268841 -5.85808576 3.46395304 -9 5 C-8.00233891 2.50584728 -7.31383315 1.21259665 -5.0625 -0.3125 C-3 -1 -3 -1 0 0 Z " fill="#011932" transform="translate(208,114)"/>
<path d="M0 0 C0.66 0.33 1.32 0.66 2 1 C0.35 3.64 -1.3 6.28 -3 9 C-3.33 7.68 -3.66 6.36 -4 5 C-2.0625 2.25 -2.0625 2.25 0 0 Z " fill="#011A2E" transform="translate(57,31)"/>
<path d="M0 0 C0.66 0 1.32 0 2 0 C1.67 0.99 1.34 1.98 1 3 C0.67 2.01 0.34 1.02 0 0 Z " fill="#00001F" transform="translate(160,191)"/>
<path d="M0 0 C4 1 4 1 4 1 Z " fill="#002535" transform="translate(170,73)"/>
<path d="M0 0 C3 1 3 1 3 1 Z " fill="#000054" transform="translate(162,265)"/>
<path d="" fill="#001554" transform="translate(0,0)"/>
<path d="M0 0 C3 1 3 1 3 1 Z " fill="#00002A" transform="translate(104,162)"/>
<path d="M0 0 C0.66 0 1.32 0 2 0 C1.67 0.66 1.34 1.32 1 2 C0.67 1.34 0.34 0.68 0 0 Z " fill="#00157F" transform="translate(63,109)"/>
<path d="" fill="#00153F" transform="translate(0,0)"/>
<path d="M0 0 C0.66 0 1.32 0 2 0 C1.67 0.66 1.34 1.32 1 2 C0.67 1.34 0.34 0.68 0 0 Z " fill="#00002A" transform="translate(8,90)"/>
<path d="M0 0 C0.66 0.66 1.32 1.32 2 2 C1.34 2 0.68 2 0 2 C0 1.34 0 0.68 0 0 Z " fill="#000000" transform="translate(7,81)"/>
<path d="M0 0 C3 1 3 1 3 1 Z " fill="#00002A" transform="translate(72,62)"/>
<path d="" fill="#00003F" transform="translate(0,0)"/>
<path d="" fill="#002A2A" transform="translate(0,0)"/>
<path d="M0 0 C2 1 2 1 2 1 Z " fill="#00007F" transform="translate(133,241)"/>
<path d="M0 0 C2 1 2 1 2 1 Z " fill="#000000" transform="translate(92,233)"/>
<path d="M0 0 C2 1 2 1 2 1 Z " fill="#002A6A" transform="translate(117,210)"/>
<path d="" fill="#002A2A" transform="translate(0,0)"/>
<path d="" fill="#000000" transform="translate(0,0)"/>
<path d="M0 0 C2 1 2 1 2 1 Z " fill="#00007F" transform="translate(55,191)"/>
<path d="M0 0 C2 1 2 1 2 1 Z " fill="#000000" transform="translate(52,190)"/>
<path d="" fill="#00007F" transform="translate(0,0)"/>
<path d="M0 0 C2 1 2 1 2 1 Z " fill="#000000" transform="translate(216,181)"/>
<path d="" fill="#00007F" transform="translate(0,0)"/>
<path d="M0 0 C2 1 2 1 2 1 Z " fill="#000000" transform="translate(223,171)"/>
<path d="M0 0 C2 1 2 1 2 1 Z " fill="#002A2A" transform="translate(102,161)"/>
<path d="" fill="#00003F" transform="translate(0,0)"/>
<path d="M0 0 C2 1 2 1 2 1 Z " fill="#000000" transform="translate(112,159)"/>
<path d="M0 0 C2 1 2 1 2 1 Z " fill="#000000" transform="translate(71,154)"/>
<path d="M0 0 C2 1 2 1 2 1 Z " fill="#000000" transform="translate(84,148)"/>
<path d="" fill="#000000" transform="translate(0,0)"/>
<path d="M0 0 C2 1 2 1 2 1 Z " fill="#00445D" transform="translate(213,129)"/>
<path d="" fill="#002A6A" transform="translate(0,0)"/>
<path d="" fill="#002A6A" transform="translate(0,0)"/>
<path d="M0 0 C2 1 2 1 2 1 Z " fill="#000000" transform="translate(211,110)"/>
<path d="M0 0 C2 1 2 1 2 1 Z " fill="#000000" transform="translate(7,101)"/>
<path d="" fill="#00007F" transform="translate(0,0)"/>
<path d="M0 0 C2 1 2 1 2 1 Z " fill="#000000" transform="translate(55,91)"/>
<path d="M0 0 C2 1 2 1 2 1 Z " fill="#00003F" transform="translate(188,89)"/>
<path d="M0 0 C2 1 2 1 2 1 Z " fill="#000000" transform="translate(7,84)"/>
<path d="" fill="#00003F" transform="translate(0,0)"/>
<path d="" fill="#00003F" transform="translate(0,0)"/>
<path d="" fill="#000000" transform="translate(0,0)"/>
<path d="" fill="#000000" transform="translate(0,0)"/>
<path d="M0 0 C2 1 2 1 2 1 Z " fill="#00003F" transform="translate(31,52)"/>
<path d="M0 0 C2 1 2 1 2 1 Z " fill="#005555" transform="translate(186,32)"/>
<path d="M0 0 C2 1 2 1 2 1 Z " fill="#00003F" transform="translate(89,30)"/>
<path d="M0 0 C2 1 2 1 2 1 Z " fill="#000000" transform="translate(176,28)"/>
<path d="M0 0 C2 1 2 1 2 1 Z " fill="#002E5D" transform="translate(79,10)"/>
<path d="" fill="#00003F" transform="translate(0,0)"/>
<path d="" fill="#003F3F" transform="translate(0,0)"/>
<path d="" fill="#000000" transform="translate(0,0)"/>
<path d="" fill="#000000" transform="translate(0,0)"/>
<path d="" fill="#000000" transform="translate(0,0)"/>
<path d="" fill="#000000" transform="translate(0,0)"/>
<path d="" fill="#000000" transform="translate(0,0)"/>
<path d="" fill="#000000" transform="translate(0,0)"/>
<path d="" fill="#000000" transform="translate(0,0)"/>
<path d="" fill="#000000" transform="translate(0,0)"/>
<path d="" fill="#00007F" transform="translate(0,0)"/>
<path d="" fill="#000000" transform="translate(0,0)"/>
<path d="" fill="#000000" transform="translate(0,0)"/>
<path d="" fill="#000000" transform="translate(0,0)"/>
<path d="" fill="#005555" transform="translate(0,0)"/>
<path d="" fill="#000000" transform="translate(0,0)"/>
<path d="" fill="#00007F" transform="translate(0,0)"/>
<path d="" fill="#000000" transform="translate(0,0)"/>
<path d="" fill="#005555" transform="translate(0,0)"/>
<path d="" fill="#000000" transform="translate(0,0)"/>
<path d="" fill="#000000" transform="translate(0,0)"/>
<path d="" fill="#000000" transform="translate(0,0)"/>
<path d="" fill="#000000" transform="translate(0,0)"/>
<path d="" fill="#000000" transform="translate(0,0)"/>
<path d="" fill="#00007F" transform="translate(0,0)"/>
<path d="" fill="#00007F" transform="translate(0,0)"/>
<path d="" fill="#00007F" transform="translate(0,0)"/>
<path d="" fill="#000000" transform="translate(0,0)"/>
<path d="" fill="#00007F" transform="translate(0,0)"/>
<path d="" fill="#00007F" transform="translate(0,0)"/>
<path d="" fill="#00007F" transform="translate(0,0)"/>
<path d="" fill="#00007F" transform="translate(0,0)"/>
<path d="" fill="#000000" transform="translate(0,0)"/>
<path d="" fill="#00007F" transform="translate(0,0)"/>
<path d="" fill="#000000" transform="translate(0,0)"/>
<path d="" fill="#000000" transform="translate(0,0)"/>
<path d="" fill="#003F7F" transform="translate(0,0)"/>
<path d="" fill="#000000" transform="translate(0,0)"/>
<path d="" fill="#000000" transform="translate(0,0)"/>
<path d="" fill="#005555" transform="translate(0,0)"/>
<path d="" fill="#000000" transform="translate(0,0)"/>
<path d="" fill="#00007F" transform="translate(0,0)"/>
<path d="" fill="#000000" transform="translate(0,0)"/>
<path d="" fill="#003F3F" transform="translate(0,0)"/>
<path d="" fill="#00007F" transform="translate(0,0)"/>
<path d="" fill="#000000" transform="translate(0,0)"/>
<path d="" fill="#000000" transform="translate(0,0)"/>
<path d="" fill="#005555" transform="translate(0,0)"/>
<path d="" fill="#00007F" transform="translate(0,0)"/>
<path d="" fill="#000000" transform="translate(0,0)"/>
<path d="" fill="#00007F" transform="translate(0,0)"/>
<path d="" fill="#000000" transform="translate(0,0)"/>
<path d="" fill="#005555" transform="translate(0,0)"/>
<path d="" fill="#000000" transform="translate(0,0)"/>
<path d="" fill="#000000" transform="translate(0,0)"/>
<path d="" fill="#000000" transform="translate(0,0)"/>
<path d="" fill="#000000" transform="translate(0,0)"/>
<path d="" fill="#000000" transform="translate(0,0)"/>
<path d="" fill="#00007F" transform="translate(0,0)"/>
<path d="" fill="#00007F" transform="translate(0,0)"/>
<path d="" fill="#000000" transform="translate(0,0)"/>
<path d="" fill="#000000" transform="translate(0,0)"/>
<path d="" fill="#000000" transform="translate(0,0)"/>
<path d="" fill="#000000" transform="translate(0,0)"/>
<path d="" fill="#003F7F" transform="translate(0,0)"/>
<path d="" fill="#000000" transform="translate(0,0)"/>
<path d="" fill="#005555" transform="translate(0,0)"/>
<path d="" fill="#000000" transform="translate(0,0)"/>
<path d="" fill="#000000" transform="translate(0,0)"/>
<path d="" fill="#000000" transform="translate(0,0)"/>
<path d="" fill="#00007F" transform="translate(0,0)"/>
<path d="" fill="#000000" transform="translate(0,0)"/>
<path d="" fill="#000000" transform="translate(0,0)"/>
<path d="" fill="#00007F" transform="translate(0,0)"/>
<path d="" fill="#000000" transform="translate(0,0)"/>
<path d="" fill="#000000" transform="translate(0,0)"/>
<path d="" fill="#00007F" transform="translate(0,0)"/>
<path d="" fill="#00007F" transform="translate(0,0)"/>
<path d="" fill="#000000" transform="translate(0,0)"/>
<path d="" fill="#000000" transform="translate(0,0)"/>
<path d="" fill="#000000" transform="translate(0,0)"/>
<path d="" fill="#00007F" transform="translate(0,0)"/>
<path d="" fill="#000000" transform="translate(0,0)"/>
<path d="" fill="#000000" transform="translate(0,0)"/>
<path d="" fill="#003366" transform="translate(0,0)"/>
<path d="" fill="#00007F" transform="translate(0,0)"/>
<path d="" fill="#000000" transform="translate(0,0)"/>
<path d="" fill="#000000" transform="translate(0,0)"/>
<path d="" fill="#000000" transform="translate(0,0)"/>
<path d="" fill="#000000" transform="translate(0,0)"/>
<path d="" fill="#000000" transform="translate(0,0)"/>
<path d="" fill="#00007F" transform="translate(0,0)"/>
<path d="" fill="#000000" transform="translate(0,0)"/>
<path d="" fill="#000000" transform="translate(0,0)"/>
<path d="" fill="#00007F" transform="translate(0,0)"/>
<path d="" fill="#00007F" transform="translate(0,0)"/>
<path d="" fill="#000000" transform="translate(0,0)"/>
<path d="" fill="#000000" transform="translate(0,0)"/>
<path d="" fill="#000000" transform="translate(0,0)"/>
<path d="" fill="#000000" transform="translate(0,0)"/>
<path d="" fill="#000000" transform="translate(0,0)"/>
<path d="" fill="#00007F" transform="translate(0,0)"/>
<path d="" fill="#000000" transform="translate(0,0)"/>
<path d="" fill="#000000" transform="translate(0,0)"/>
<path d="" fill="#000000" transform="translate(0,0)"/>
<path d="" fill="#00007F" transform="translate(0,0)"/>
<path d="" fill="#000000" transform="translate(0,0)"/>
<path d="" fill="#005555" transform="translate(0,0)"/>
<path d="" fill="#000000" transform="translate(0,0)"/>
<path d="" fill="#00007F" transform="translate(0,0)"/>
<path d="" fill="#00007F" transform="translate(0,0)"/>
<path d="" fill="#000000" transform="translate(0,0)"/>
<path d="" fill="#000000" transform="translate(0,0)"/>
<path d="" fill="#00007F" transform="translate(0,0)"/>
<path d="" fill="#000000" transform="translate(0,0)"/>
<path d="" fill="#000000" transform="translate(0,0)"/>
<path d="" fill="#000000" transform="translate(0,0)"/>
<path d="" fill="#003366" transform="translate(0,0)"/>
<path d="" fill="#00007F" transform="translate(0,0)"/>
<path d="" fill="#000000" transform="translate(0,0)"/>
<path d="" fill="#000000" transform="translate(0,0)"/>
<path d="" fill="#000000" transform="translate(0,0)"/>
<path d="" fill="#000000" transform="translate(0,0)"/>
<path d="" fill="#005555" transform="translate(0,0)"/>
<path d="" fill="#000000" transform="translate(0,0)"/>
<path d="" fill="#000000" transform="translate(0,0)"/>
<path d="" fill="#00007F" transform="translate(0,0)"/>
<path d="" fill="#000000" transform="translate(0,0)"/>
<path d="" fill="#005555" transform="translate(0,0)"/>
<path d="" fill="#000000" transform="translate(0,0)"/>
<path d="" fill="#00007F" transform="translate(0,0)"/>
<path d="" fill="#000000" transform="translate(0,0)"/>
<path d="" fill="#000000" transform="translate(0,0)"/>
<path d="" fill="#000000" transform="translate(0,0)"/>
<path d="" fill="#00007F" transform="translate(0,0)"/>
<path d="" fill="#000000" transform="translate(0,0)"/>
<path d="" fill="#000000" transform="translate(0,0)"/>
<path d="" fill="#000000" transform="translate(0,0)"/>
<path d="" fill="#000000" transform="translate(0,0)"/>
<path d="" fill="#00007F" transform="translate(0,0)"/>
<path d="" fill="#000000" transform="translate(0,0)"/>
<path d="" fill="#000000" transform="translate(0,0)"/>
<path d="" fill="#000000" transform="translate(0,0)"/>
<path d="" fill="#000000" transform="translate(0,0)"/>
<path d="" fill="#00007F" transform="translate(0,0)"/>
<path d="" fill="#00007F" transform="translate(0,0)"/>
<path d="" fill="#000000" transform="translate(0,0)"/>
<path d="" fill="#000000" transform="translate(0,0)"/>
<path d="" fill="#00007F" transform="translate(0,0)"/>
<path d="" fill="#000000" transform="translate(0,0)"/>
<path d="" fill="#000000" transform="translate(0,0)"/>
<path d="" fill="#000000" transform="translate(0,0)"/>
<path d="" fill="#002A55" transform="translate(0,0)"/>
<path d="" fill="#000000" transform="translate(0,0)"/>
<path d="" fill="#005555" transform="translate(0,0)"/>
<path d="" fill="#000000" transform="translate(0,0)"/>
<path d="" fill="#000000" transform="translate(0,0)"/>
<path d="" fill="#000000" transform="translate(0,0)"/>
<path d="" fill="#000000" transform="translate(0,0)"/>
<path d="" fill="#000000" transform="translate(0,0)"/>
<path d="" fill="#000000" transform="translate(0,0)"/>
<path d="" fill="#000000" transform="translate(0,0)"/>
<path d="" fill="#000000" transform="translate(0,0)"/>
<path d="" fill="#000000" transform="translate(0,0)"/>
<path d="" fill="#000000" transform="translate(0,0)"/>
<path d="" fill="#000000" transform="translate(0,0)"/>
<path d="" fill="#005555" transform="translate(0,0)"/>
<path d="" fill="#005555" transform="translate(0,0)"/>
<path d="" fill="#00007F" transform="translate(0,0)"/>
<path d="" fill="#000000" transform="translate(0,0)"/>
<path d="" fill="#005555" transform="translate(0,0)"/>
<path d="" fill="#000000" transform="translate(0,0)"/>
<path d="" fill="#003F7F" transform="translate(0,0)"/>
<path d="" fill="#000000" transform="translate(0,0)"/>
<path d="" fill="#000000" transform="translate(0,0)"/>
<path d="" fill="#000000" transform="translate(0,0)"/>
<path d="" fill="#000000" transform="translate(0,0)"/>
<path d="" fill="#000000" transform="translate(0,0)"/>
<path d="" fill="#000000" transform="translate(0,0)"/>
<path d="" fill="#000000" transform="translate(0,0)"/>
<path d="" fill="#00007F" transform="translate(0,0)"/>
<path d="" fill="#00007F" transform="translate(0,0)"/>
<path d="" fill="#000000" transform="translate(0,0)"/>
<path d="" fill="#000000" transform="translate(0,0)"/>
<path d="" fill="#000000" transform="translate(0,0)"/>
<path d="" fill="#000000" transform="translate(0,0)"/>
<path d="" fill="#000000" transform="translate(0,0)"/>
<path d="" fill="#005555" transform="translate(0,0)"/>
<path d="" fill="#00007F" transform="translate(0,0)"/>
<path d="" fill="#00007F" transform="translate(0,0)"/>
<path d="" fill="#000000" transform="translate(0,0)"/>
<path d="" fill="#000000" transform="translate(0,0)"/>
<path d="" fill="#000000" transform="translate(0,0)"/>
<path d="" fill="#000000" transform="translate(0,0)"/>
<path d="" fill="#000000" transform="translate(0,0)"/>
<path d="" fill="#000000" transform="translate(0,0)"/>
<path d="" fill="#00007F" transform="translate(0,0)"/>
<path d="" fill="#000000" transform="translate(0,0)"/>
<path d="" fill="#005555" transform="translate(0,0)"/>
<path d="" fill="#000000" transform="translate(0,0)"/>
<path d="" fill="#00007F" transform="translate(0,0)"/>
<path d="" fill="#003366" transform="translate(0,0)"/>
<path d="" fill="#000000" transform="translate(0,0)"/>
<path d="" fill="#000000" transform="translate(0,0)"/>
<path d="" fill="#000000" transform="translate(0,0)"/>
<path d="" fill="#000000" transform="translate(0,0)"/>
<path d="" fill="#000000" transform="translate(0,0)"/>
<path d="" fill="#00007F" transform="translate(0,0)"/>
<path d="" fill="#000000" transform="translate(0,0)"/>
<path d="" fill="#00007F" transform="translate(0,0)"/>
<path d="" fill="#000000" transform="translate(0,0)"/>
<path d="" fill="#00007F" transform="translate(0,0)"/>
<path d="" fill="#00007F" transform="translate(0,0)"/>
<path d="" fill="#000000" transform="translate(0,0)"/>
<path d="" fill="#000000" transform="translate(0,0)"/>
<path d="" fill="#000000" transform="translate(0,0)"/>
<path d="" fill="#000000" transform="translate(0,0)"/>
<path d="" fill="#000000" transform="translate(0,0)"/>
<path d="" fill="#000000" transform="translate(0,0)"/>
<path d="" fill="#000000" transform="translate(0,0)"/>
<path d="" fill="#000000" transform="translate(0,0)"/>
<path d="" fill="#00007F" transform="translate(0,0)"/>
<path d="" fill="#000000" transform="translate(0,0)"/>
<path d="" fill="#00007F" transform="translate(0,0)"/>
<path d="" fill="#000000" transform="translate(0,0)"/>
</svg>
